
<svg width="420px" height="389px" viewBox="520 1891 420 389" version="1.1" xmlns="http://www.w3.org/2000/svg" xmlns:xlink="http://www.w3.org/1999/xlink">
    <!-- Generator: Sketch 40.3 (33839) - http://www.bohemiancoding.com/sketch -->
    <desc>Created with Sketch.</desc>
    <defs>
        <rect id="path-1" x="0" y="0" width="420" height="389"></rect>
    </defs>
    <g id="2-Graphic-" stroke="none" stroke-width="1" fill="none" fill-rule="evenodd" transform="translate(520.000000, 1891.000000)">
        <mask id="mask-2" fill="white">
            <use xlink:href="#path-1"></use>
        </mask>
        <g id="Mask"></g>
        <g id="Page-1" opacity="0.1" mask="url(#mask-2)" fill="#000000">
            <g transform="translate(7.000000, 7.000000)">
                <path d="M20.7517598,85.4855286 C20.7517598,64.3183714 37.928894,47.1912571 59.1149541,47.1912571 C80.3010143,47.1912571 97.4837164,64.3406 97.4837164,85.4855286 C97.4837164,106.630457 80.3010143,123.774243 59.1149541,123.774243 C37.928894,123.774243 20.7517598,106.630457 20.7517598,85.4855286 L20.7517598,85.4855286 Z" id="Fill-1"></path>
                <path d="M366.003805,85.4855286 C366.003805,64.3183714 348.821103,47.1912571 327.64061,47.1912571 C306.476822,47.1912571 289.271848,64.3406 289.271848,85.4855286 C289.271848,106.630457 306.45455,123.774243 327.64061,123.774243 C348.821103,123.774243 366.003805,106.630457 366.003805,85.4855286 L366.003805,85.4855286 Z" id="Fill-2"></path>
                <path d="M384.817917,158.378571 C384.817917,146.002814 377.512763,138.7563 362.963702,136.583457 L321.137242,136.583457 L294.038016,136.672371 C291.749587,136.216686 289.405479,136.216686 287.11705,136.6946 L286.988987,136.6946 L286.988987,136.716829 C283.63708,137.450371 280.485619,139.1453 278.00788,141.879414 L241.359615,182.3632 L209.059921,146.0695 C208.102233,143.8133 206.665701,141.684914 204.71135,139.951086 C201.470802,137.105829 197.445172,135.761 193.441814,135.738771 C193.202392,135.716543 192.985242,135.738771 192.768091,135.716543 C192.528669,135.738771 192.311519,135.716543 192.072097,135.738771 C188.068739,135.761 184.048677,137.0836 180.808129,139.951086 C178.84821,141.684914 177.411678,143.791071 176.45399,146.0695 L144.159864,182.3632 L107.511599,141.879414 C105.028292,139.1453 101.854559,137.450371 98.5026517,136.716829 L98.5026517,136.672371 L98.3745888,136.672371 C96.114,136.194457 93.7643239,136.194457 91.4591915,136.650143 L64.3599656,136.561229 L22.5112329,136.561229 C7.9621724,138.734071 0.67372228,145.986143 0.67372228,158.356343 L0,177.8508 L0,277.073586 C0,287.910014 8.15705075,300.257986 21.9655735,300.257986 L21.9655735,389 L98.5026517,389 L98.5026517,182.930029 L130.585195,218.379043 C134.633097,222.808086 140.479447,224.6086 146.008424,223.719457 C150.529602,223.547186 155.011804,221.635529 158.252352,217.990043 L192.768091,179.195629 L227.28383,217.990043 C230.524379,221.657757 234.984309,223.563857 239.533326,223.719457 C245.056735,224.6086 250.903086,222.808086 254.950987,218.379043 L287.033531,182.930029 L287.033531,389 L363.570609,389 L363.570609,300.280214 C377.379132,300.280214 385.536183,287.910014 385.536183,277.095814 L385.536183,177.8508 L384.817917,158.378571 Z" id="Fill-3"></path>
                <path d="M193.792595,108.669929 L175.50187,97.2055429 C137.500593,71.4204 135.74112,46.1298429 136.370298,35.2989714 C137.044021,23.1621714 146.091944,2.03947143 166.103166,1.45597143 C186.13666,0.844685714 193.358294,26.4186571 193.358294,26.4186571 C193.358294,26.4186571 200.446298,0.455685714 220.45752,0.844685714 C240.485446,1.26147143 249.733816,22.2952571 250.535601,34.4265 C251.253867,45.2796 249.733816,70.5479286 211.994232,96.7054 L193.792595,108.669929" id="Fill-4"></path>
            </g>
        </g>
    </g>
</svg>
