
<svg width="547px" height="425px" viewBox="447 2679 547 425" version="1.1" xmlns="http://www.w3.org/2000/svg" xmlns:xlink="http://www.w3.org/1999/xlink">
    <!-- Generator: Sketch 40.3 (33839) - http://www.bohemiancoding.com/sketch -->
    <desc>Created with Sketch.</desc>
    <defs></defs>
    <g id="3-Graphic-" opacity="0.1" stroke="none" stroke-width="1" fill="none" fill-rule="evenodd" transform="translate(447.000000, 2679.000000)">
        <path d="M80.2435441,330.600577 C80.1206765,330.797192 80.0551471,330.928269 80.0551471,331.051154 L80.0551471,330.600577 L80.2435441,330.600577 Z" id="Fill-1" fill="#000000"></path>
        <path d="M493.488397,192.904269 C480.914941,192.904269 470.864368,195.779769 462.894353,200.646 C462.509368,175.462846 458.446544,146.757 427.99175,146.757 C415.729559,146.757 406.54725,150.214154 399.642088,155.817692 C400.281,133.4445 403.418221,97.767 370.489691,97.767 C341.984397,97.767 333.441,120.197538 330.107191,140.612769 C326.273721,138.9825 322.014309,137.606192 317.312574,136.451077 C316.796529,134.435769 316.190382,132.354923 315.682529,130.241308 C307.933676,100.576962 306.877015,63.9081923 271.523897,63.3265385 C236.10525,63.9081923 235.081353,100.576962 227.242397,130.241308 C226.693588,132.133731 226.251265,134.017962 225.735221,135.844846 C222.409603,136.549385 219.337912,137.409577 216.397279,138.466385 C212.809544,118.624615 203.946691,97.767 176.367,97.767 C143.438471,97.767 146.542926,133.4445 147.214603,155.817692 C140.30125,150.214154 131.118941,146.757 118.832176,146.757 C89.0162941,146.757 84.5357206,174.152077 84.0196765,198.884654 C76.5984706,195.108 67.5799853,192.8715 56.6365735,192.8715 C-3.04433824,192.8715 2.17344118,249.480346 7.19463235,302.763115 C11.1018235,343.913077 36.2815,365.098385 55.5799118,374.060769 C71.8967353,381.614077 86.1002353,387.569885 98.3542353,392.206731 C98.4852941,392.206731 98.5508235,392.272269 98.6163529,392.272269 C138.990662,411.630692 209.803382,424.623692 270.336176,424.623692 C328.321515,424.623692 405.523353,413.932731 447.249206,393.837 C460.437,389.003538 476.139485,382.539808 494.479529,374.093538 C513.76975,365.163923 538.949426,343.945846 542.856618,302.795885 C548.008868,249.513115 553.161118,192.904269 493.488397,192.904269 L493.488397,192.904269 Z M266.18325,75.0415385 C266.18325,71.8465385 268.583265,69.3151154 271.523897,69.3151154 C274.530059,69.3151154 276.930074,71.8465385 276.930074,75.0415385 C276.930074,77.9907692 274.915044,80.3829231 272.228338,80.8007308 L277.831103,124.359231 L272.801721,131.781462 L271.491132,133.731231 L270.213309,131.781462 L265.192118,124.195385 L270.819456,80.7679615 C268.198279,80.4156923 266.18325,77.9907692 266.18325,75.0415385 L266.18325,75.0415385 Z M463.025412,336.138577 C462.959882,336.720231 462.771485,337.162615 462.574897,337.514885 C459.060882,345.871038 442.547471,354.989077 417.654485,362.829115 C381.400338,374.314731 327.330382,383.121462 270.401706,383.121462 C217.126294,383.121462 167.823603,374.314731 132.691647,363.017538 C103.989765,353.965038 84.7568824,343.183962 80.563,334.377231 C80.3090735,333.803769 80.1206765,333.328615 80.0551471,332.8125 C79.9240882,332.239038 79.9240882,331.690154 80.0551471,331.051154 L80.0551471,330.600577 L80.2435441,330.600577 C80.4401324,329.805923 80.8906471,328.970308 81.7507206,327.979038 L119.823309,276.072577 L141.677368,246.187038 L141.742897,246.1215 L168.880265,209.125038 L203.021088,162.568154 C205.576735,159.242077 210.221132,155.522769 218.28125,152.516192 C219.403441,152.131154 220.550206,151.746115 221.803456,151.3365 C220.681265,155.784923 219.788426,159.364962 219.11675,161.699769 C219.11675,161.699769 219.11675,161.699769 219.11675,161.765308 C218.666235,163.526654 218.379544,164.583462 218.379544,164.583462 C218.379544,164.583462 217.609574,166.787192 217.675103,169.351385 C217.797971,172.743 219.370676,176.773615 226.406897,176.773615 C238.538029,176.773615 240.037015,166.213731 240.037015,166.213731 L244.329191,146.978192 C251.684868,146.216308 260.293794,145.732962 270.336176,145.732962 C280.960132,145.732962 290.437324,146.249077 298.685838,147.240346 L302.846956,166.213731 C302.846956,166.213731 304.419662,176.773615 316.542603,176.773615 C328.673735,176.773615 324.512618,164.583462 324.512618,164.583462 C324.512618,164.583462 323.202029,159.618923 321.309868,152.131154 C323.931044,153.032308 326.273721,154.089115 328.346088,155.145923 C332.253279,157.284115 335.324971,159.717231 337.536588,162.437077 L348.283412,177.125885 L377.239221,216.588231 L391.958765,236.683962 L429.269574,287.566385 L440.753603,303.213692 L448.174809,313.388538 L458.962588,328.011808 L459.6015,328.781885 C463.025412,332.239038 463.377632,334.573846 463.025412,336.138577 L463.025412,336.138577 Z" id="Fill-2" fill="#000000"></path>
        <path d="M297.956824,29.2465385 C297.956824,67.0458462 245.123735,67.0458462 245.123735,29.2465385 C245.123735,-8.57734615 297.956824,-8.57734615 297.956824,29.2465385" id="Fill-3" fill="#000000"></path>
        <path d="M206.985618,61.8928846 C206.985618,99.7167692 154.160721,99.7167692 154.160721,61.8928846 C154.160721,24.0935769 206.985618,24.0935769 206.985618,61.8928846" id="Fill-4" fill="#000000"></path>
        <path d="M146.796853,103.616308 C146.796853,122.434038 132.593353,137.729077 115.031471,137.729077 C97.4941618,137.729077 83.2906618,122.466808 83.2906618,103.616308 C83.2906618,84.774 97.4941618,69.5035385 115.031471,69.5035385 C132.593353,69.5035385 146.796853,84.774 146.796853,103.616308 L146.796853,103.616308 Z" id="Fill-5" fill="#000000"></path>
        <path d="M79.4817647,139.555962 C79.4817647,196.394192 0.0273529412,196.394192 0.0273529412,139.555962 C0.0273529412,82.6931538 79.4817647,82.6931538 79.4817647,139.555962" id="Fill-6" fill="#000000"></path>
        <path d="M392.794265,61.8928846 C392.794265,99.7167692 339.936603,99.7167692 339.936603,61.8928846 C339.936603,24.0935769 392.794265,24.0935769 392.794265,61.8928846" id="Fill-7" fill="#000000"></path>
        <path d="M463.664324,103.616308 C463.664324,149.091808 400.149941,149.091808 400.149941,103.616308 C400.149941,58.149 463.664324,58.149 463.664324,103.616308" id="Fill-8" fill="#000000"></path>
        <path d="M546.919441,139.555962 C546.919441,196.394192 467.473221,196.394192 467.473221,139.555962 C467.473221,82.6931538 546.919441,82.6931538 546.919441,139.555962" id="Fill-9" fill="#000000"></path>
    </g>
</svg>
