
<svg width="307px" height="392px" viewBox="1000 1385 307 392" version="1.1" xmlns="http://www.w3.org/2000/svg" xmlns:xlink="http://www.w3.org/1999/xlink">
    <!-- Generator: Sketch 40.3 (33839) - http://www.bohemiancoding.com/sketch -->
    <desc>Created with Sketch.</desc>
    <defs></defs>
    <path d="M1146.82481,1385.08491 L1146.82481,1385.19104 L1146.63768,1385.19104 C1139.8688,1386.08256 1135.71444,1389.378 1132.8914,1394.22829 L1132.76843,1394.41403 L1118.92056,1428.72163 C1112.32277,1430.71163 1105.91212,1433.28005 1099.7688,1436.41099 L1066.85472,1422.45976 C1063.47028,1420.86245 1059.81316,1421.01104 1056.7014,1421.73275 C1053.58964,1422.45976 1051.04463,1423.62192 1049.20537,1425.44741 L1040.28713,1434.29893 L1040.16416,1434.46344 C1036.00445,1439.83379 1035.42167,1445.07677 1036.90269,1450.48427 L1036.96685,1450.69123 L1051.14621,1483.61379 C1047.59603,1490.14099 1044.71417,1497.00251 1042.52204,1504.09221 L1010.34045,1516.90251 C1006.80631,1518.16549 1004.34149,1520.81883 1002.67333,1523.49339 C1000.99983,1526.18917 1000,1528.80005 1000,1531.37379 L1000,1543.89221 L1000.06416,1544.09917 C1000.9624,1550.81741 1004.28268,1554.91947 1009.16953,1557.71608 L1009.35667,1557.82221 L1042.56481,1571.0252 C1044.77833,1578.11491 1047.70296,1584.9552 1051.27453,1591.48771 L1037.65657,1622.47333 L1037.59241,1622.6856 C1035.88148,1629.04829 1035.75316,1635.86736 1040.32991,1640.63275 L1049.33369,1649.56917 L1049.54221,1649.69123 C1055.45028,1653.84104 1061.27815,1654.5256 1066.87611,1652.26496 L1099.22879,1638.41456 C1104.36159,1641.04667 1109.75103,1643.16403 1115.22601,1644.98952 C1112.28,1627.65795 1102.71481,1613.83408 1092.66843,1599.27789 C1080.57427,1581.78712 1067.98287,1563.19256 1067.98287,1536.90864 C1067.98287,1490.868 1105.91212,1453.49315 1152.56713,1453.49315 C1199.22749,1453.49315 1237.1514,1490.868 1237.1514,1536.90864 C1237.1514,1565.57525 1224.47445,1582.8856 1212.40703,1598.99133 C1202.21093,1612.60824 1192.54416,1625.41853 1189.76389,1644.61275 C1195.25492,1642.70765 1200.60159,1640.44701 1205.73973,1637.73531 L1239.1564,1652.18005 L1239.36492,1652.24373 C1245.78092,1653.94187 1252.65139,1654.06923 1257.45269,1649.52672 L1266.45648,1640.5956 L1266.60084,1640.38864 C1270.78193,1634.51947 1271.48769,1628.7352 1269.21536,1623.17912 L1269.21536,1623.12075 L1254.21796,1588.60619 C1256.95545,1583.25707 1259.24917,1577.70099 1261.08843,1571.9804 L1295.94869,1558.40064 L1296.13583,1558.27859 C1301.87815,1554.98315 1306.82916,1550.25491 1306.99491,1543.68525 L1306.99491,1530.99701 L1306.93075,1530.7476 C1305.70101,1523.67912 1302.06528,1519.09947 1296.48871,1516.75923 L1296.42455,1516.75923 L1260.92268,1502.74432 C1259.10481,1497.06619 1256.84852,1491.55256 1254.1538,1486.24589 L1269.1512,1451.37579 C1270.76055,1448.02197 1270.58945,1444.39221 1269.88369,1441.30373 C1269.1512,1438.21525 1267.98028,1435.68397 1266.14103,1433.86379 L1257.22279,1425.01227 L1257.07843,1424.88491 C1251.6676,1420.76163 1246.40648,1420.19912 1240.93149,1421.65315 L1240.72297,1421.71152 L1205.24249,1436.78245 C1199.64453,1433.87971 1193.83805,1431.43333 1187.84444,1429.46456 L1173.99657,1395.28432 C1172.74545,1391.78192 1170.05073,1389.31432 1167.33463,1387.65333 C1164.61852,1385.99765 1161.98796,1385 1159.39483,1385 L1146.78204,1385 L1146.82481,1385.08491 Z M1152.56713,1459.81339 C1109.26983,1459.81339 1074.24916,1494.34917 1074.24916,1537.00947 C1074.24916,1561.32461 1085.77657,1578.40677 1097.82796,1595.8604 C1112.65427,1618.57824 1121.59389,1634.27005 1123.78603,1658.81339 L1138.30223,1658.81339 L1094.63065,1534.44104 L1118.50352,1534.44104 C1120.13425,1517.06701 1134.70927,1503.34397 1152.63129,1503.34397 C1170.59075,1503.34397 1185.27269,1517.04579 1186.86065,1534.44104 L1208.83545,1534.44104 L1167.22769,1658.81339 L1181.26269,1658.81339 C1183.68473,1630.83133 1194.29787,1612.85765 1207.34908,1595.3828 C1219.40047,1579.29829 1230.86907,1563.87712 1230.86907,1537.00947 C1230.86907,1494.34917 1195.84305,1459.81339 1152.54575,1459.81339 L1152.56713,1459.81339 Z M1154.32084,1466.05403 L1154.32084,1466.05403 C1158.48055,1466.17608 1158.33084,1472.35304 1154.17648,1472.27344 C1122.49213,1471.50397 1094.81779,1493.22947 1088.22,1523.99221 C1087.86712,1525.66912 1086.19361,1526.7676 1084.50407,1526.39613 C1082.78779,1526.04589 1081.7238,1524.38491 1082.08203,1522.68677 C1089.28399,1489.04251 1119.67444,1465.22619 1154.32084,1466.05403 L1154.32084,1466.05403 Z M1152.65268,1509.56339 C1137.00833,1509.56339 1124.37416,1522.08712 1124.37416,1537.56667 C1124.37416,1553.0356 1137.00833,1565.5328 1152.65268,1565.5328 C1168.29703,1565.5328 1180.76545,1553.05152 1180.76545,1537.56667 C1180.76545,1522.06589 1168.29703,1509.56339 1152.65268,1509.56339 L1152.65268,1509.56339 Z M1149.54092,1515.76157 L1155.57731,1515.76157 L1155.57731,1522.27285 C1157.16527,1522.60187 1158.71045,1523.1856 1160.04712,1524.32123 L1162.405,1526.33245 L1158.60352,1531.37379 L1156.26703,1529.34133 C1155.55592,1528.73637 1154.42777,1528.32245 1153.23547,1528.32245 C1150.77065,1528.32245 1149.3324,1529.87731 1149.3324,1531.26765 C1149.3324,1533.19397 1149.97935,1534.21285 1152.42277,1534.21285 C1157.66251,1534.21285 1161.83825,1538.60677 1161.83825,1543.78608 C1161.83825,1547.95712 1159.12749,1551.16765 1155.59869,1552.51555 L1155.59869,1559.31339 L1149.56231,1559.31339 L1149.56231,1552.82864 C1147.97435,1552.47309 1146.42916,1551.89467 1145.11388,1550.77496 L1142.75065,1548.76373 L1146.53075,1543.72771 L1148.87259,1545.73893 C1149.58369,1546.33859 1150.74927,1546.77373 1151.8988,1546.77373 C1154.36361,1546.77373 1155.80721,1545.21888 1155.80721,1543.80731 C1155.80721,1542.04549 1154.78065,1540.67637 1152.42277,1540.67637 C1147.28463,1540.67637 1143.27463,1536.28245 1143.27463,1531.26765 C1143.27463,1527.10192 1146.01212,1523.88608 1149.54092,1522.53819 L1149.54092,1515.74035 L1149.54092,1515.76157 Z M1221.42685,1534.39859 L1221.42685,1534.39859 C1223.18056,1534.37736 1224.62416,1535.78893 1224.60277,1537.55075 C1224.60277,1556.51677 1216.99981,1574.71333 1203.48879,1588.12859 C1202.27509,1589.39157 1200.24871,1589.4128 1198.99759,1588.17104 C1197.76251,1586.9452 1197.78389,1584.93397 1199.0564,1583.73467 C1211.40185,1571.48157 1218.33648,1554.87701 1218.33648,1537.55075 C1218.31509,1535.82608 1219.69453,1534.44104 1221.42685,1534.39859 L1221.42685,1534.39859 Z M1103.44731,1540.66045 L1144.94279,1658.81339 L1160.62991,1658.81339 L1200.16316,1540.66045 L1186.88204,1540.66045 C1185.31547,1558.02917 1170.63352,1571.75221 1152.65268,1571.75221 C1134.68788,1571.75221 1119.86157,1558.0504 1118.27361,1540.66045 L1103.46869,1540.66045 L1103.44731,1540.66045 Z M1124.12287,1665.0328 C1124.20307,1667.12893 1124.37416,1669.11893 1124.37416,1671.35304 L1105.38815,1671.35304 L1105.38815,1696.12456 L1067.79573,1696.12456 L1067.79573,1702.34397 L1111.65444,1702.34397 L1111.65444,1677.57245 L1124.37416,1677.57245 L1124.37416,1699.23427 C1124.37416,1699.61104 1124.45436,1699.96128 1124.58268,1700.31152 L1124.58268,1739.71883 L1086.7764,1739.71883 L1086.7764,1745.93824 L1130.84897,1745.93824 L1130.84897,1702.34397 L1137.32379,1702.34397 C1138.22203,1706.65829 1140.8312,1710.47379 1144.73427,1712.72912 C1146.15648,1713.54104 1147.68028,1714.03456 1149.24685,1714.36888 L1149.24685,1740.05315 L1155.51315,1740.05315 L1155.51315,1714.43256 C1157.20269,1714.09824 1158.8762,1713.62064 1160.4,1712.72912 C1164.30307,1710.47379 1166.91759,1706.65829 1167.81583,1702.34397 L1174.45639,1702.34397 L1174.39223,1745.93824 L1218.45945,1745.93824 L1218.45945,1739.71883 L1180.65852,1739.71883 L1180.72268,1699.48368 C1180.72268,1699.40408 1180.78149,1699.31917 1180.78149,1699.23427 L1180.78149,1677.47163 L1193.35685,1677.47163 L1193.35685,1702.24315 L1237.21556,1702.24315 L1237.21556,1696.02373 L1199.62315,1696.02373 L1199.62315,1671.25221 L1180.78149,1671.25221 C1180.78149,1669.07648 1180.95259,1667.10771 1181.03279,1665.0328 L1124.14425,1665.0328 L1124.12287,1665.0328 Z M1130.64045,1671.25221 L1174.49916,1671.25221 L1174.49916,1677.47163 L1130.64045,1677.47163 L1130.64045,1671.25221 Z M1045.86371,1683.69104 C1037.26092,1683.69104 1030.19797,1690.69584 1030.19797,1699.23427 C1030.19797,1707.778 1037.26092,1714.7828 1045.86371,1714.7828 C1054.46649,1714.7828 1061.52944,1707.778 1061.52944,1699.23427 C1061.52944,1690.69584 1054.46649,1683.69104 1045.86371,1683.69104 L1045.86371,1683.69104 Z M1130.64045,1683.69104 L1174.49916,1683.69104 L1174.49916,1689.91045 L1130.64045,1689.91045 L1130.64045,1683.69104 Z M1259.1262,1683.69104 C1250.51807,1683.69104 1243.46047,1690.69584 1243.46047,1699.23427 C1243.46047,1707.778 1250.51807,1714.7828 1259.1262,1714.7828 C1267.72899,1714.7828 1274.79193,1707.778 1274.79193,1699.23427 C1274.79193,1690.69584 1267.72899,1683.69104 1259.1262,1683.69104 L1259.1262,1683.69104 Z M1064.97269,1727.22163 C1056.36991,1727.22163 1049.31231,1734.22643 1049.31231,1742.76485 C1049.31231,1751.30859 1056.36991,1758.31339 1064.97269,1758.31339 C1073.58083,1758.31339 1080.63843,1751.30859 1080.63843,1742.76485 C1080.63843,1734.22643 1073.58083,1727.22163 1064.97269,1727.22163 L1064.97269,1727.22163 Z M1240.30593,1727.22163 C1231.70315,1727.22163 1224.64555,1734.22643 1224.64555,1742.76485 C1224.64555,1751.30859 1231.70315,1758.31339 1240.30593,1758.31339 C1248.91407,1758.31339 1255.97167,1751.30859 1255.97167,1742.76485 C1255.97167,1734.22643 1248.91407,1727.22163 1240.30593,1727.22163 L1240.30593,1727.22163 Z M1152.40139,1745.87456 C1143.7986,1745.87456 1136.73565,1752.88467 1136.73565,1761.42309 C1136.73565,1769.96152 1143.7986,1776.97163 1152.40139,1776.97163 C1161.00417,1776.97163 1168.06712,1769.96152 1168.06712,1761.42309 C1168.06712,1752.88467 1161.00417,1745.87456 1152.40139,1745.87456 L1152.40139,1745.87456 Z" id="Lamp-Graphic" stroke="none" fill="#000000" fill-rule="evenodd"></path>
</svg>
