
<svg width="262px" height="304px" viewBox="133 938 262 304" version="1.1" xmlns="http://www.w3.org/2000/svg" xmlns:xlink="http://www.w3.org/1999/xlink">
    <!-- Generator: Sketch 40.3 (33839) - http://www.bohemiancoding.com/sketch -->
    <desc>Created with Sketch.</desc>
    <defs></defs>
    <path d="M394.051018,1064.33129 C399.304288,1022.47505 383.152151,972.320151 335.460779,949.812315 C297.730611,932.023 231.156501,932.055997 196.047083,965.712573 C165.425896,995.067212 158.513079,1036.73372 158.513079,1036.73372 C158.513079,1036.73372 155.358763,1052.2174 155.358763,1057.35663 C155.358763,1062.269 160.615956,1064.20343 160.015695,1066.7318 C159.419356,1069.26429 153.518746,1076.48231 149.014822,1084.37675 C144.506975,1092.2712 133,1109.81716 133,1114.53568 C133,1119.27483 135.695292,1121.02777 141.105493,1122.91271 C146.515694,1124.81414 150.713602,1126.37735 151.619879,1128.6005 C152.522233,1130.81128 149.042285,1137.12601 148.857891,1141.6218 C148.704883,1145.45354 150.038798,1145.89074 152.7694,1147.00026 C156.155189,1148.38612 161.365302,1148.56347 161.365302,1148.56347 C161.365302,1148.56347 149.764168,1150.86911 150.913689,1155.86398 C152.110289,1161.0527 159.097648,1162.09622 159.709679,1166.15893 C160.015695,1168.20472 153.793375,1178.69353 154.621187,1188.90599 C155.696165,1202.23251 167.69355,1208.19253 186.729297,1204.98773 C204.874459,1201.92729 213.411513,1199.07308 215.738017,1209.59489 C217.209246,1216.21897 217.056239,1227.39658 219.755454,1240.03017 C219.861383,1240.52924 219.983004,1241.07781 220.092856,1241.60988 L359.353544,1241.60988 C353.390161,1230.20129 345.559298,1211.88403 345.559298,1188.56778 C345.559298,1172.58503 347.077606,1148.83982 357.97255,1136.22273 C371.660868,1120.38434 389.817801,1097.97549 394.051018,1064.33129 L394.051018,1064.33129 Z M336.547527,1097.50529 C336.547527,1097.50529 334.727126,1118.44991 320.105068,1121.14326 C307.585886,1123.44478 299.276383,1110.76582 299.276383,1110.76582 L295.168711,1131.22786 L286.404107,1131.22786 C286.404107,1131.22786 278.451621,1100.40487 272.978648,1095.20378 C267.493905,1090.01505 259.003931,1088.5797 259.003931,1088.5797 C259.003931,1088.5797 247.493032,1087.70941 240.089806,1079.94283 C232.690503,1072.16387 239.540547,1062.65671 239.540547,1062.65671 C239.540547,1062.65671 230.222761,1063.23828 211.308636,1058.91984 C192.398434,1054.60141 198.16173,1041.92245 198.16173,1041.92245 C198.16173,1041.92245 193.226246,1042.79273 189.118573,1037.31529 C186.191808,1033.41344 184.061468,1023.9104 189.397126,1012.82353 C194.159986,1002.89979 202.544032,999.451641 202.544032,999.451641 C202.544032,999.451641 199.448565,995.310562 205.976901,989.5279 C209.394076,986.512832 215.432001,986.595324 215.432001,986.595324 C215.432001,986.595324 216.903231,979.938251 225.993467,975.619815 C236.276379,970.740437 243.126423,974.782525 243.126423,974.782525 C243.126423,974.782525 245.868795,968.451294 253.82128,965.568213 C261.777688,962.685131 269.714481,967.581008 269.714481,967.581008 C269.714481,967.581008 275.093295,962.474777 284.964264,962.474777 C294.835232,962.474777 298.495651,967.873853 298.495651,967.873853 C298.495651,967.873853 304.443341,964.66493 311.64648,967.292287 C318.465137,969.787659 320.426777,976.733452 320.426777,976.733452 C320.426777,976.733452 325.346568,973.058451 332.196612,975.945657 C339.046656,978.828739 341.789027,986.611822 341.789027,986.611822 C341.789027,986.611822 346.508731,985.885896 351.216665,990.2662 C354.708383,993.520494 353.574555,999.579503 353.574555,999.579503 C353.574555,999.579503 359.38493,1001.6088 362.860955,1008.9258 C366.09766,1015.73961 361.515271,1021.4769 361.515271,1021.4769 C361.515271,1021.4769 371.107686,1028.96714 372.472987,1048.5589 C374.14038,1072.46909 359.596788,1077.09274 359.596788,1077.09274 C359.596788,1077.09274 362.480397,1084.68197 357.407598,1092.94763 C350.479089,1104.14587 336.547527,1097.50529 336.547527,1097.50529 L336.547527,1097.50529 Z" id="Head-Graphic" stroke="none" fill="#000000" fill-rule="evenodd"></path>
</svg>
