
<svg width="360px" height="416px" viewBox="542 561 360 416" version="1.1" xmlns="http://www.w3.org/2000/svg" xmlns:xlink="http://www.w3.org/1999/xlink">
	<!-- Generator: Sketch 40.3 (33839) - http://www.bohemiancoding.com/sketch -->
	<desc>Created with Sketch.</desc>
	<defs>
		<rect id="path-1" x="3.69482223e-13" y="0" width="359.344828" height="415" rx="8"></rect>
		<rect id="path-3" x="6.82121026e-13" y="0" width="449.666094" height="416.476453"></rect>
	</defs>
	<g id="Impact-Investing-Icon" stroke="none" stroke-width="1" fill="none" fill-rule="evenodd" transform="translate(542.000000, 561.000000)">
		<mask id="mask-2" fill="white">
			<use xlink:href="#path-1"></use>
		</mask>
		<g id="Mask"></g>
		<g id="2-Graphic-" opacity="0.05" mask="url(#mask-2)">
			<g transform="translate(-42.000000, -5.000000)">
				<mask id="mask-4" fill="white">
					<use xlink:href="#path-3"></use>
				</mask>
				<g id="Mask" stroke="none" fill="none"></g>
				<g id="Page-1" stroke="none" stroke-width="1" fill="none" fill-rule="evenodd" mask="url(#mask-4)">
					<g transform="translate(7.486948, 7.494435)" fill="#000000">
						<path d="M22.2175304,91.5236755 C22.2175304,68.8614068 40.6079467,50.5245435 63.2904536,50.5245435 C85.9729605,50.5245435 104.369338,68.8852054 104.369338,91.5236755 C104.369338,114.162146 85.9729605,132.516858 63.2904536,132.516858 C40.6079467,132.516858 22.2175304,114.162146 22.2175304,91.5236755 L22.2175304,91.5236755 Z" id="Fill-1"></path>
						<path d="M391.855955,91.5236755 C391.855955,68.8614068 373.459578,50.5245435 350.783032,50.5245435 C328.12437,50.5245435 309.704148,68.8852054 309.704148,91.5236755 C309.704148,114.162146 328.100525,132.516858 350.783032,132.516858 C373.459578,132.516858 391.855955,114.162146 391.855955,91.5236755 L391.855955,91.5236755 Z" id="Fill-2"></path>
						<path d="M411.998975,169.565413 C411.998975,156.315512 404.177832,148.557151 388.60112,146.230832 L343.820307,146.230832 L314.806966,146.326027 C312.356898,145.838155 309.847217,145.838155 307.397149,146.349826 L307.26004,146.349826 L307.26004,146.373624 C303.671376,147.15898 300.297316,148.973627 297.644565,151.900862 L258.407703,195.244161 L223.826567,156.386908 C222.801234,153.971345 221.263235,151.692624 219.170841,149.836329 C215.701401,146.790101 211.391426,145.350282 207.105297,145.326484 C206.848964,145.302685 206.616476,145.326484 206.383987,145.302685 C206.127654,145.326484 205.895166,145.302685 205.638833,145.326484 C201.352703,145.350282 197.04869,146.766302 193.57925,149.836329 C191.480895,151.692624 189.942896,153.947546 188.917563,156.386908 L154.342388,195.244161 L115.105526,151.900862 C112.446814,148.973627 109.048909,147.15898 105.460244,146.373624 L105.460244,146.326027 L105.323136,146.326027 C102.902874,145.814356 100.387232,145.814356 97.9192795,146.302228 L68.9059389,146.207034 L24.1012813,146.207034 C8.52456896,148.533352 0.721309681,156.297663 0.721309681,169.541615 L0,190.413035 L0,296.644278 C0,308.246123 8.73321225,321.466275 23.5170801,321.466275 L23.5170801,416.476453 L105.460244,416.476453 L105.460244,195.851027 L139.808892,233.803931 C144.142711,238.545813 150.40201,240.473504 156.321519,239.521558 C161.162043,239.337118 165.960839,237.290434 169.430279,233.387455 L206.383987,191.852853 L243.337696,233.387455 C246.807136,237.314233 251.582086,239.354967 256.452417,239.521558 C262.365964,240.473504 268.625263,238.545813 272.959082,233.803931 L307.30773,195.851027 L307.30773,416.476453 L389.250895,416.476453 L389.250895,321.490074 C404.034762,321.490074 412.767975,308.246123 412.767975,296.668077 L412.767975,190.413035 L411.998975,169.565413 Z" id="Fill-3"></path>
						<path d="M207.480855,116.345672 L187.898191,104.071516 C147.212749,76.4650769 145.328998,49.3881577 146.002617,37.7922633 C146.723927,24.798198 156.410937,2.18352655 177.835623,1.55881187 C199.284154,0.90434887 207.015878,28.2847009 207.015878,28.2847009 C207.015878,28.2847009 214.604533,0.487872417 236.029219,0.90434887 C257.471789,1.35057364 267.373403,23.8700504 268.231822,36.8581661 C269.000821,48.4778592 267.373403,75.5309797 226.968139,103.536046 L207.480855,116.345672" id="Fill-4"></path>
					</g>
				</g>
			</g>
		</g>
	</g>
</svg>