
<svg width="638px" height="413px" viewBox="-139 3 638 413" version="1.1" xmlns="http://www.w3.org/2000/svg" xmlns:xlink="http://www.w3.org/1999/xlink">
    <!-- Generator: Sketch 40.3 (33839) - http://www.bohemiancoding.com/sketch -->
    <desc>Created with Sketch.</desc>
    <defs></defs>
    <g id="1-Graphic-" opacity="0.05" stroke="none" stroke-width="1" fill="none" fill-rule="evenodd" transform="translate(-139.000000, 3.000000)">
        <g id="Group" fill="#000000">
            <path d="M252.43373,84.802571 C275.767726,84.802571 294.725535,65.9024621 294.852997,42.5273498 C294.725535,19.2200407 275.767726,0.311456372 252.43373,0.243653291 C228.997764,0.345357913 210.048452,19.2539422 210.048452,42.5273498 C210.048452,65.9024621 228.997764,84.802571 252.43373,84.802571 L252.43373,84.802571 Z" id="Fill-1"></path>
            <path d="M97.8226376,306.950891 L97.8226376,177.269023 L173.534912,136.544797 L173.534912,174.989144 C173.500922,182.303402 175.523315,185.44777 178.310478,188.09209 L221.596486,235.800033 C241.047148,255.4375 268.901787,228.350169 251.303569,208.687276 L212.963077,166.412055 L212.963077,85.9297972 C212.699656,61.1647218 179.143229,38.5523942 155.180421,50.9010304 L53.8398395,105.397757 C40.4308643,113.076456 35.0859686,126.25568 35.017989,139.756968 L35.017989,307.450939 C35.0859686,353.167166 97.8566274,353.167166 97.8226376,306.950891 L97.8226376,306.950891 Z" id="Fill-2"></path>
            <path d="M388.129499,84.802571 C411.599455,84.802571 430.514777,65.9024621 430.514777,42.5273498 C430.548767,19.2200407 411.599455,0.311456372 388.129499,0.243653291 C364.795503,0.345357913 345.837694,19.2539422 345.744222,42.5273498 C345.837694,65.9024621 364.829493,84.802571 388.129499,84.802571 L388.129499,84.802571 Z" id="Fill-3"></path>
            <path d="M427.591654,166.445956 L389.285153,208.721177 C371.695432,228.384071 399.550071,255.505303 419.000733,235.833934 L462.278243,188.125991 C465.065406,185.481671 467.096297,182.337303 467.028317,175.014571 L467.028317,136.578699 L542.774581,177.302925 L542.774581,306.984793 C542.740591,353.201068 605.54524,353.201068 605.57923,307.417037 L605.57923,139.723067 C605.54524,126.221778 600.166355,113.076456 586.757379,105.363855 L485.416798,50.8671288 C461.420001,38.5523942 427.889065,61.1647218 427.591654,85.8958957 L427.591654,166.445956 Z" id="Fill-4"></path>
            <path d="M477.981529,341.68302 L431.678928,318.570644 L429.851976,317.680729 C428.951246,317.375615 428.059014,317.112878 427.064813,317.112878 C424.872471,317.112878 422.94355,317.977367 421.388516,319.299527 L419.697524,321.282768 L354.071722,394.654177 L339.396627,394.654177 L361.10761,341.68302 L276.201096,341.68302 L297.912079,394.654177 L283.236984,394.654177 L217.577192,321.316669 L215.8862,319.333429 C214.331167,318.011269 212.402246,317.14678 210.243893,317.14678 C209.249692,317.14678 208.35746,317.409517 207.45673,317.706155 L205.663768,318.604546 L159.327176,341.68302 L0,341.68302 L0,412.299929 L637.308706,412.299929 L637.308706,341.68302 L477.981529,341.68302 Z" id="Fill-5"></path>
            <path d="M309.893483,129.798391 L309.893483,341.68302 C309.893483,352.938331 327.415223,352.938331 327.415223,341.68302 L327.415223,129.798391 C327.415223,118.534604 309.893483,118.534604 309.893483,129.798391 L309.893483,129.798391 Z" id="Fill-6"></path>
            <path d="M303.121015,283.575779 C289.31266,269.803278 265.579284,271.091537 265.579284,271.091537 C265.579284,271.091537 264.287672,294.763287 278.096027,308.535788 C291.929875,322.342191 315.637758,321.020031 315.637758,321.020031 C315.637758,321.020031 316.963361,297.34828 303.121015,283.575779 L303.121015,283.575779 Z" id="Fill-7"></path>
            <path d="M303.121015,195.279216 C289.31266,181.506716 265.579284,182.794974 265.579284,182.794974 C265.579284,182.794974 264.287672,206.466725 278.096027,220.239226 C291.929875,234.045628 315.637758,232.723468 315.637758,232.723468 C315.637758,232.723468 316.963361,209.085619 303.121015,195.279216 L303.121015,195.279216 Z" id="Fill-8"></path>
            <path d="M334.187691,248.250374 C347.996046,234.477873 371.729422,235.766131 371.729422,235.766131 C371.729422,235.766131 373.021034,259.437882 359.212679,273.210383 C345.378831,287.016785 321.670948,285.694625 321.670948,285.694625 C321.670948,285.694625 320.345345,262.056776 334.187691,248.250374 L334.187691,248.250374 Z" id="Fill-9"></path>
        </g>
        <path d="M334.187691,159.953811 C347.996046,146.18131 371.729422,147.469569 371.729422,147.469569 C371.729422,147.469569 373.021034,171.14132 359.212679,184.91382 C345.378831,198.720223 321.670948,197.398063 321.670948,197.398063 C321.670948,197.398063 320.345345,173.760214 334.187691,159.953811 L334.187691,159.953811 Z" id="Fill-10" fill="#000000"></path>
    </g>
</svg>