
<svg width="213px" height="57px" viewBox="141 36 213 57" version="1.1" xmlns="http://www.w3.org/2000/svg" xmlns:xlink="http://www.w3.org/1999/xlink">
    <!-- Generator: Sketch 40.3 (33839) - http://www.bohemiancoding.com/sketch -->
    <desc>Created with Sketch.</desc>
    <defs>
        <polygon id="path-1" points="0 56.90367 212.824873 56.90367 212.824873 0 0 0"></polygon>
    </defs>
    <g id="Logo" stroke="none" stroke-width="1" fill="none" fill-rule="evenodd" transform="translate(141.000000, 36.000000)">
        <path d="M71.3766987,45.609063 C65.3480583,45.609063 60.4433631,40.700223 60.4433631,34.666488 L60.4433631,11.738808 L62.4366786,11.738808 L62.4366786,34.666488 C62.4366786,39.600123 66.4472294,43.614063 71.3766987,43.614063 C76.3061679,43.614063 80.3167187,39.600123 80.3167187,34.666488 L80.3167187,11.738808 L82.3100342,11.738808 L82.3100342,34.666488 C82.3100342,40.700223 77.405339,45.609063 71.3766987,45.609063 L71.3766987,45.609063 Z" id="Fill-1" fill="#FFFFFF"></path>
        <path d="M104.505289,45.5998575 L102.511974,45.5998575 L102.511974,34.8832875 C102.511974,28.6400775 98.6312731,25.8456525 94.7853132,25.8456525 C90.9399229,25.8456525 87.0600766,28.6400775 87.0600766,34.8832875 L87.0600766,45.5998575 L85.0667611,45.5998575 L85.0667611,34.8832875 C85.0667611,28.3872825 89.0630739,23.8506525 94.7853132,23.8506525 C100.508407,23.8506525 104.505289,28.3872825 104.505289,34.8832875 L104.505289,45.5998575 Z" id="Fill-3" fill="#FFFFFF"></path>
        <path d="M189.893316,45.449577 L187.9,45.449577 L187.9,34.883487 C187.9,28.640277 184.0193,25.845567 180.173055,25.845567 C176.327949,25.845567 172.448103,28.640277 172.448103,34.883487 L172.448103,45.449577 L170.454788,45.449577 L170.454788,34.883487 C170.454788,28.387482 174.451101,23.850567 180.173055,23.850567 C185.896149,23.850567 189.893316,28.387482 189.893316,34.883487 L189.893316,45.449577 Z" id="Fill-5" fill="#FFFFFF"></path>
        <path d="M132.345784,45.5998575 L130.352469,45.5998575 L130.352469,34.8832875 C130.352469,28.3872825 134.348782,23.8506525 140.070736,23.8506525 L140.070736,25.8456525 C136.225631,25.8456525 132.345784,28.6400775 132.345784,34.8832875 L132.345784,45.5998575 Z" id="Fill-7" fill="#FFFFFF"></path>
        <mask id="mask-2" fill="white">
            <use xlink:href="#path-1"></use>
        </mask>
        <g id="Clip-10"></g>
        <polygon id="Fill-9" fill="#FFFFFF" mask="url(#mask-2)" points="142.489311 45.56979 144.482627 45.56979 144.482627 11.65479 142.489311 11.65479"></polygon>
        <polygon id="Fill-11" fill="#FFFFFF" mask="url(#mask-2)" points="125.118991 45.56979 127.112306 45.56979 127.112306 11.65479 125.118991 11.65479"></polygon>
        <path d="M117.057482,26.385471 C112.610964,26.385471 108.993381,30.265461 108.993381,35.034651 C108.993381,39.803841 112.610964,43.683831 117.057482,43.683831 C121.503999,43.683831 125.121582,39.803841 125.121582,35.034651 C125.121582,30.265461 121.503999,26.385471 117.057482,26.385471 M117.057482,45.678831 C111.511508,45.678831 107.000066,40.903656 107.000066,35.034651 C107.000066,29.165361 111.511508,24.390471 117.057482,24.390471 C122.603455,24.390471 127.114897,29.165361 127.114897,35.034651 C127.114897,40.903656 122.603455,45.678831 117.057482,45.678831" id="Fill-12" fill="#FFFFFF" mask="url(#mask-2)"></path>
        <polygon id="Fill-13" fill="#FFFFFF" mask="url(#mask-2)" points="165.27006 45.56979 167.263376 45.56979 167.263376 26.18979 165.27006 26.18979"></polygon>
        <path d="M157.169909,26.385471 C152.723392,26.385471 149.105809,30.265461 149.105809,35.034651 C149.105809,39.803841 152.723392,43.683831 157.169909,43.683831 C161.616427,43.683831 165.23401,39.803841 165.23401,35.034651 C165.23401,30.265461 161.616427,26.385471 157.169909,26.385471 M157.169909,45.678831 C151.623936,45.678831 147.112494,40.903656 147.112494,35.034651 C147.112494,29.165361 151.623936,24.390471 157.169909,24.390471 C162.715883,24.390471 167.227325,29.165361 167.227325,35.034651 C167.227325,40.903656 162.715883,45.678831 157.169909,45.678831" id="Fill-14" fill="#FFFFFF" mask="url(#mask-2)"></path>
        <polygon id="Fill-15" fill="#FFFFFF" mask="url(#mask-2)" points="210.831557 45.56979 212.824873 45.56979 212.824873 11.65479 210.831557 11.65479"></polygon>
        <path d="M202.445537,26.385471 C197.999019,26.385471 194.381436,30.265461 194.381436,35.034651 C194.381436,39.803841 197.999019,43.683831 202.445537,43.683831 C206.892054,43.683831 210.509637,39.803841 210.509637,35.034651 C210.509637,30.265461 206.892054,26.385471 202.445537,26.385471 M202.445537,45.678831 C196.899564,45.678831 192.388121,40.903656 192.388121,35.034651 C192.388121,29.165361 196.899564,24.390471 202.445537,24.390471 C207.99151,24.390471 212.502953,29.165361 212.502953,35.034651 C212.502953,40.903656 207.99151,45.678831 202.445537,45.678831" id="Fill-16" fill="#FFFFFF" mask="url(#mask-2)"></path>
        <path d="M48.372841,21.861894 L46.4874493,23.724084 L46.4692247,10.762569 C46.9373691,10.765704 47.7221659,10.762569 48.3486365,10.568199 C48.3463584,10.637169 48.372841,21.861894 48.372841,21.861894" id="Fill-17" fill="#FFFFFF" mask="url(#mask-2)"></path>
        <polygon id="Fill-18" fill="#FFFFFF" mask="url(#mask-2)" points="48.3071471 31.7603145 46.4342848 31.7477745 46.4698797 26.3749545 48.3552714 24.5130495"></polygon>
        <polygon id="Fill-19" fill="#FFFFFF" mask="url(#mask-2)" points="28.4885222 10.6405035 28.5010516 8.7660585 39.048823 8.8361685 37.1634313 10.6980735"></polygon>
        <path d="M46.4815833,8.8880955 C46.5507798,8.8886655 46.6194068,8.8858155 46.6883186,8.8841055 C46.4690539,9.4541055 46.4738948,10.0597305 46.4690539,10.7625405 L39.8390017,10.7186505 L41.7243934,8.8564605 L46.4815833,8.8880955 Z" id="Fill-20" fill="#FFFFFF" mask="url(#mask-2)"></path>
        <polygon id="Fill-21" fill="#FFFFFF" mask="url(#mask-2)" points="31.0828508 19.2941295 29.7672626 17.9817045 37.1758468 10.6862745 39.8246783 10.7039445"></polygon>
        <polygon id="Fill-22" fill="#FFFFFF" mask="url(#mask-2)" points="42.3285959 30.3821685 41.0215504 29.0808585 46.4875063 23.7239985 46.4698512 26.3750685"></polygon>
        <polygon id="Fill-23" fill="#FFFFFF" mask="url(#mask-2)" points="46.4559265 28.4673675 48.3287888 28.4799075 48.2778168 36.2772225 46.4171992 34.3902375"></polygon>
        <path d="M48.2141162,46.570083 C47.6095721,46.303038 46.8054116,46.248888 46.3372672,46.245753 L46.3996295,37.041393 L48.2602472,38.928378 C48.2602472,38.928378 48.2124076,46.501113 48.2141162,46.570083" id="Fill-24" fill="#FFFFFF" mask="url(#mask-2)"></path>
        <polygon id="Fill-25" fill="#FFFFFF" mask="url(#mask-2)" points="28.2978473 48.0304515 28.3103767 46.1560065 33.8819783 46.1930565 35.742596 48.0800415"></polygon>
        <path d="M46.1602893,48.149211 L38.3906302,48.097626 L36.5300126,46.210641 L46.3379791,46.245696 C46.2143936,46.928841 46.2630874,47.619396 46.4137251,48.156051 C46.3450981,48.153486 46.2294858,48.149781 46.1602893,48.149211" id="Fill-26" fill="#FFFFFF" mask="url(#mask-2)"></path>
        <polygon id="Fill-27" fill="#FFFFFF" mask="url(#mask-2)" points="28.4794668 19.2481305 29.8275176 17.9314305 46.4224388 34.3904655 46.4050684 37.0412505"></polygon>
        <polygon id="Fill-28" fill="#FFFFFF" mask="url(#mask-2)" points="16.2581647 28.474008 17.6662997 27.155028 36.5307529 46.210413 33.8819214 46.193028"></polygon>
        <polygon id="Fill-29" fill="#FFFFFF" mask="url(#mask-2)" points="10.5317394 31.497459 8.7018758 31.497174 8.70244532 24.249909 10.5448384 26.136324"></polygon>
        <path d="M8.77514439,10.5414945 C8.7757139,10.4722395 8.77685294,10.3741995 8.77514439,10.3052295 C9.33184893,10.4910495 9.94977674,10.5198345 10.6519933,10.5246795 L10.5622941,23.4853395 L8.70167647,21.5980695 L8.77514439,10.5414945 Z" id="Fill-30" fill="#FFFFFF" mask="url(#mask-2)"></path>
        <polygon id="Fill-31" fill="#FFFFFF" mask="url(#mask-2)" points="28.5009662 8.7659445 28.4884368 10.6403895 20.0290905 10.5842445 18.1684729 8.6972595"></polygon>
        <path d="M15.5074536,8.682183 L17.3680713,10.569168 L10.6520218,10.524423 C10.6565779,9.821613 10.6181354,9.250188 10.4575311,8.643423 C10.5264429,8.645988 15.5074536,8.682183 15.5074536,8.682183" id="Fill-32" fill="#FFFFFF" mask="url(#mask-2)"></path>
        <polygon id="Fill-33" fill="#FFFFFF" mask="url(#mask-2)" points="27.1967114 17.9427165 25.863468 19.2813615 17.3679574 10.5691965 20.0167889 10.5868665"></polygon>
        <polygon id="Fill-34" fill="#FFFFFF" mask="url(#mask-2)" points="15.8770997 28.879734 14.517089 30.170214 10.544696 26.136324 10.5623511 23.485254"></polygon>
        <polygon id="Fill-35" fill="#FFFFFF" mask="url(#mask-2)" points="8.7017619 28.218192 10.5563996 28.229022 10.4923287 34.044447 8.69663623 35.907207"></polygon>
        <path d="M8.69954078,46.328688 C8.69954078,46.328688 8.69413035,46.230363 8.69441511,46.161108 L8.69640842,38.451573 L10.4747306,36.695403 L10.4120836,46.114083 C9.70986698,46.109523 9.26792045,46.114083 8.69954078,46.328688" id="Fill-36" fill="#FFFFFF" mask="url(#mask-2)"></path>
        <path d="M10.4037401,47.9114925 C10.3345436,47.9109225 10.3231532,47.9080725 10.2545262,47.9097825 C10.3923497,47.3050125 10.407442,46.8170925 10.4119981,46.1142825 L20.0585061,46.1402175 L18.1733992,47.9630775 L10.4037401,47.9114925 Z" id="Fill-37" fill="#FFFFFF" mask="url(#mask-2)"></path>
        <polygon id="Fill-38" fill="#FFFFFF" mask="url(#mask-2)" points="28.3102628 46.1558925 28.2977334 48.0303375 20.8222307 47.9807475 22.7076225 46.1185575"></polygon>
        <polygon id="Fill-39" fill="#FFFFFF" mask="url(#mask-2)" points="38.1189983 28.4177775 39.435156 29.6749125 22.707537 46.1185575 20.0587055 46.1402175"></polygon>
        <polygon id="Fill-40" fill="#FFFFFF" mask="url(#mask-2)" points="27.174073 17.9197455 28.488807 19.2541155 10.4746452 36.6955455 10.4923003 34.0444755"></polygon>
        <path d="M28.4290929,0.000114 L28.4288082,0.000114 L28.4236825,0.000114 C20.87101,0.000684 13.7588603,2.935614 8.39712634,8.263974 C3.03282955,13.594899 0.0508295455,20.697384 0.000711898396,28.262994 C-0.049690508,35.862519 2.85969586,43.026849 8.19323864,48.436149 C13.5267814,53.845734 20.6457654,56.852484 28.2388737,56.902929 C28.3037988,56.903499 28.3664459,56.903784 28.4316557,56.903784 C35.9843282,56.903784 43.0964779,53.968854 48.4584967,48.640209 C53.8227934,43.308999 56.8047934,36.206514 56.8549111,28.640904 C56.9053135,21.041379 53.9956424,13.877049 48.6623844,8.467464 C43.3288416,3.058164 36.2098576,0.051129 28.6164646,0.000684 C28.553248,0.000399 28.4923095,0.000114 28.4290929,0.000114 M28.4239672,1.816704 C28.4849057,1.816704 28.5435662,1.816989 28.6045047,1.817274 C43.3020742,1.915029 55.1375274,13.918944 55.0398549,28.628649 C54.942752,43.277649 43.045506,55.087194 28.4316557,55.087194 C28.3707172,55.087194 28.3120568,55.086909 28.2511183,55.086624 C13.5535488,54.988869 1.71809559,42.984954 1.81576805,28.274964 C1.91287099,13.626249 13.810117,1.817844 28.4239672,1.816704" id="Fill-41" fill="#FFFFFF" mask="url(#mask-2)"></path>
    </g>
</svg>