
<svg width="36px" height="40px" viewBox="1054 45 36 40" version="1.1" xmlns="http://www.w3.org/2000/svg" xmlns:xlink="http://www.w3.org/1999/xlink">
	<!-- Generator: Sketch 40.3 (33839) - http://www.bohemiancoding.com/sketch -->
	<desc>Created with Sketch.</desc>
	<defs>
		<polygon id="path-1" points="35.7952449 0 0 0 0 39.93548 35.7952449 39.93548 35.7952449 0"></polygon>
	</defs>
	<g id="User-Icon" stroke="none" stroke-width="1" fill="none" fill-rule="evenodd" transform="translate(1054.000000, 45.000000)">
		<mask id="mask-2" fill="white">
			<use xlink:href="#path-1"></use>
		</mask>
		<g id="Clip-2"></g>
		<path d="M17.897582,22.69068 C26.4615371,22.69068 33.4030652,29.50708 33.8734921,38.12028 L1.92167191,38.12028 C2.39209888,29.50708 9.33362697,22.69068 17.897582,22.69068 M17.897582,20.87548 C8.01052584,20.87548 -8.08988771e-05,29.02628 -8.08988771e-05,39.02788 C-8.08988771e-05,39.52908 0.410885393,39.93548 0.917716854,39.93548 L34.8774472,39.93548 C35.3842787,39.93548 35.7952449,39.52908 35.7952449,39.02788 C35.7952449,29.02628 27.7846382,20.87548 17.897582,20.87548 M17.897582,1.81508 C22.2171775,1.81508 25.6990652,5.25868 25.6990652,9.52988 C25.6990652,13.80148 22.2171775,17.24508 17.897582,17.24508 C13.5779865,17.24508 10.0960989,13.80148 10.0960989,9.52988 C10.0960989,5.25868 13.5779865,1.81508 17.897582,1.81508 M17.897582,-0.00012 C12.5861663,-0.00012 8.26050337,4.27748 8.26050337,9.52988 C8.26050337,14.78268 12.5861663,19.06028 17.897582,19.06028 C23.2089978,19.06028 27.5346607,14.78268 27.5346607,9.52988 C27.5346607,4.27748 23.2089978,-0.00012 17.897582,-0.00012" id="Fill-1" fill="#0D0D0B" mask="url(#mask-2)"></path>
	</g>
</svg>