
<svg width="426px" height="342px" viewBox="507 3478 426 342" version="1.1" xmlns="http://www.w3.org/2000/svg" xmlns:xlink="http://www.w3.org/1999/xlink">
    <!-- Generator: Sketch 40.3 (33839) - http://www.bohemiancoding.com/sketch -->
    <desc>Created with Sketch.</desc>
    <defs></defs>
    <g id="4-Graphic-" opacity="0.1" stroke="none" stroke-width="1" fill="none" fill-rule="evenodd" transform="translate(507.000000, 3478.000000)">
        <path d="M406.044311,336.216176 L406.044311,271.952365 L410.565538,271.952365 L410.565538,266.526635 L391.118236,266.526635 L391.118236,259.290318 L397.001858,259.290318 L397.001858,253.864588 L391.118236,253.864588 L391.118236,250.708129 L397.001858,250.708129 L397.001858,245.288435 L391.118236,245.288435 L391.118236,241.208576 L385.698792,241.208576 L385.698792,245.288435 L379.81517,245.288435 L379.81517,250.708129 L385.698792,250.708129 L385.698792,253.864588 L379.81517,253.864588 L379.81517,259.290318 L385.698792,259.290318 L385.698792,266.526635 L366.721698,266.526635 L366.721698,164.656906 L370.350736,164.656906 L370.350736,159.237212 L366.721698,159.237212 L366.721698,149.737659 L313.35917,149.737659 L313.35917,131.631776 L316.518,131.631776 L316.518,126.206047 L313.35917,126.206047 C311.996774,114.443259 302.508226,104.943706 290.753038,103.573694 L290.753038,96.3373765 L285.339623,96.3373765 L285.339623,103.573694 C273.590462,104.943706 264.101915,114.443259 262.733491,126.206047 L259.580689,126.206047 L259.580689,131.631776 L262.733491,131.631776 L262.733491,171.470753 L217.521226,171.470753 L217.521226,95.8666235 L170.048349,95.8666235 L170.048349,81.8406 L173.677387,81.8406 L173.677387,76.4148706 L170.048349,76.4148706 L170.048349,46.0995882 L173.677387,46.0995882 L173.677387,40.6738588 L168.257943,40.6738588 L147.020236,15.3316588 L125.7765,40.6738588 L120.363085,40.6738588 L120.363085,46.0995882 L123.986094,46.0995882 L123.986094,76.4148706 L120.363085,76.4148706 L120.363085,81.8406 L123.986094,81.8406 L123.986094,182.316176 L48.4454434,182.316176 L48.4454434,187.735871 L56.1255,187.735871 L56.1255,336.216176 L51.1521509,336.216176 L51.1521509,341.635871 L425.473528,341.635871 L425.473528,336.216176 L406.044311,336.216176 Z M146.996123,23.8897059 L161.005896,40.6255765 L132.510113,40.6255765 L146.996123,23.8897059 Z M79.1777264,336.216176 L71.4976698,336.216176 L71.4976698,313.583824 L79.1777264,313.583824 L79.1777264,336.216176 Z M151.071255,336.216176 L143.391198,336.216176 L143.391198,313.583824 L151.071255,313.583824 L151.071255,336.216176 Z M164.634934,294.584718 L135.693057,294.584718 L135.693057,300.004412 L164.634934,300.004412 L164.634934,335.769565 L156.48467,335.769565 L156.48467,307.240729 L137.95367,307.240729 L137.95367,335.769565 L129.803406,335.769565 L129.803406,278.742071 L124.389991,278.742071 L124.389991,336.216176 L84.5911415,336.216176 L84.5911415,307.687341 L66.0601415,307.687341 L66.0601415,336.216176 L61.5389151,336.216176 L61.5389151,187.735871 L124.389991,187.735871 L124.389991,255.632929 L129.803406,255.632929 L129.803406,81.8406 L164.610821,81.8406 L164.610821,294.584718 L164.634934,294.584718 Z M164.634934,76.3907294 L129.827519,76.3907294 L129.827519,46.0754471 L164.634934,46.0754471 L164.634934,76.3907294 Z M195.361189,336.216176 L187.68716,336.216176 L187.68716,321.266753 L195.361189,321.266753 L195.361189,336.216176 Z M232.45333,336.216176 L224.773274,336.216176 L224.773274,315.847059 L232.45333,315.847059 L232.45333,336.216176 Z M245.540774,336.216176 L237.866745,336.216176 L237.866745,315.847059 L245.540774,315.847059 L245.540774,336.216176 Z M262.287396,187.735871 L225.219368,187.735871 L225.219368,193.1616 L262.287396,193.1616 L262.287396,203.107765 L228.824292,203.107765 L228.824292,208.533494 L262.287396,208.533494 L262.287396,218.479659 L225.219368,218.479659 L225.219368,223.905388 L262.287396,223.905388 L262.287396,233.851553 L237.420651,233.851553 L237.420651,238.897059 L262.287396,238.897059 L262.287396,248.843224 L225.219368,248.843224 L225.219368,254.268953 L262.287396,254.268953 L262.287396,264.215118 L228.824292,264.215118 L228.824292,269.640847 L262.287396,269.640847 L262.287396,279.635294 L218.437528,279.635294 L218.437528,285.054988 L262.287396,285.054988 L262.287396,295.007188 L198.067896,295.007188 L198.067896,300.426882 L262.263283,300.426882 L262.263283,336.192035 L250.960217,336.192035 L250.960217,309.932471 L219.311632,309.932471 L219.311632,336.192035 L200.328509,336.192035 L200.328509,315.822918 L181.797509,315.822918 L181.797509,336.192035 L169.602255,336.192035 L169.602255,300.426882 L186.318736,300.426882 L186.318736,295.007188 L169.602255,295.007188 L169.602255,101.732929 L211.185481,101.732929 L211.185481,242.506165 L216.604925,242.506165 L216.604925,176.896482 L261.817189,176.896482 L261.817189,187.735871 L262.287396,187.735871 Z M287.600236,108.999424 C297.534877,108.999424 306.131236,116.682353 307.49966,126.206047 L267.700811,126.206047 C269.51533,116.235741 277.665594,108.999424 287.600236,108.999424 L287.600236,108.999424 Z M267.700811,131.631776 L307.945755,131.631776 L307.945755,171.470753 L279.449972,171.470753 L279.449972,134.365765 L274.036557,134.365765 L274.036557,171.470753 L267.700811,171.470753 L267.700811,131.631776 Z M387.513311,336.216176 L379.839283,336.216176 L379.839283,321.266753 L387.513311,321.266753 L387.513311,336.216176 Z M400.630896,278.742071 L374.395726,278.742071 L374.395726,284.161765 L400.630896,284.161765 L400.630896,290.504859 L374.395726,290.504859 L374.395726,295.924553 L400.630896,295.924553 L400.630896,302.267647 L374.395726,302.267647 L374.395726,307.687341 L400.630896,307.687341 L400.630896,336.216176 L392.480632,336.216176 L392.480632,315.847059 L373.949632,315.847059 L373.949632,336.216176 L313.35917,336.216176 L313.35917,333.059718 L321.955528,333.059718 L310.652462,291.422224 L299.349396,333.059718 L307.945755,333.059718 L307.945755,336.216176 L286.231811,336.216176 L286.231811,333.059718 L294.82817,333.059718 L283.525104,291.422224 L272.222038,333.059718 L280.818396,333.059718 L280.818396,336.216176 L267.700811,336.216176 L267.700811,176.896482 L274.036557,176.896482 L274.036557,284.632518 L279.449972,284.632518 L279.449972,176.896482 L307.945755,176.896482 L307.945755,259.266176 L313.35917,259.266176 L313.35917,176.896482 L316.071906,176.896482 L316.071906,171.470753 L313.35917,171.470753 L313.35917,155.181494 L361.28417,155.181494 L361.28417,307.711482 L366.721698,307.711482 L366.721698,271.952365 L400.630896,271.952365 L400.630896,278.742071 Z M306.57733,327.609847 L310.652462,312.666459 L314.727594,327.609847 L306.57733,327.609847 Z M279.449972,327.609847 L283.525104,312.666459 L287.600236,327.609847 L279.449972,327.609847 Z" id="Fill-1" fill="#000000"></path>
        <polygon id="Fill-2" fill="#000000" points="67.428566 301.344247 84.1450472 301.344247 84.1450472 295.924553 67.428566 295.924553"></polygon>
        <polygon id="Fill-3" fill="#000000" points="67.428566 287.764835 84.1450472 287.764835 84.1450472 282.345141 67.428566 282.345141"></polygon>
        <polygon id="Fill-4" fill="#000000" points="67.428566 275.108824 84.1450472 275.108824 84.1450472 269.689129 67.428566 269.689129"></polygon>
        <polygon id="Fill-5" fill="#000000" points="70.1352736 216.711318 75.5486887 216.711318 75.5486887 199.975447 70.1352736 199.975447"></polygon>
        <polygon id="Fill-6" fill="#000000" points="85.959566 216.711318 91.3729811 216.711318 91.3729811 199.975447 85.959566 199.975447"></polygon>
        <polygon id="Fill-7" fill="#000000" points="101.783858 216.711318 107.197274 216.711318 107.197274 199.975447 101.783858 199.975447"></polygon>
        <polygon id="Fill-8" fill="#000000" points="70.1352736 246.133376 75.5486887 246.133376 75.5486887 229.397506 70.1352736 229.397506"></polygon>
        <polygon id="Fill-9" fill="#000000" points="85.959566 246.133376 91.3729811 246.133376 91.3729811 229.397506 85.959566 229.397506"></polygon>
        <polygon id="Fill-10" fill="#000000" points="182.243604 128.445141 187.657019 128.445141 187.657019 111.709271 182.243604 111.709271"></polygon>
        <polygon id="Fill-11" fill="#000000" points="198.067896 128.445141 203.481311 128.445141 203.481311 111.709271 198.067896 111.709271"></polygon>
        <polygon id="Fill-12" fill="#000000" points="182.243604 159.207035 187.657019 159.207035 187.657019 142.471165 182.243604 142.471165"></polygon>
        <polygon id="Fill-13" fill="#000000" points="198.067896 159.207035 203.481311 159.207035 203.481311 142.471165 198.067896 142.471165"></polygon>
        <polygon id="Fill-14" fill="#000000" points="182.243604 189.552494 187.657019 189.552494 187.657019 172.816624 182.243604 172.816624"></polygon>
        <polygon id="Fill-15" fill="#000000" points="198.067896 189.552494 203.481311 189.552494 203.481311 172.816624 198.067896 172.816624"></polygon>
        <polygon id="Fill-16" fill="#000000" points="182.243604 219.867776 187.657019 219.867776 187.657019 203.131906 182.243604 203.131906"></polygon>
        <polygon id="Fill-17" fill="#000000" points="198.067896 219.867776 203.481311 219.867776 203.481311 203.131906 198.067896 203.131906"></polygon>
        <polygon id="Fill-18" fill="#000000" points="182.243604 250.659847 187.657019 250.659847 187.657019 233.923976 182.243604 233.923976"></polygon>
        <polygon id="Fill-19" fill="#000000" points="198.067896 250.659847 203.481311 250.659847 203.481311 233.923976 198.067896 233.923976"></polygon>
        <polygon id="Fill-20" fill="#000000" points="330.105792 185.472635 335.519208 185.472635 335.519208 168.736765 330.105792 168.736765"></polygon>
        <polygon id="Fill-21" fill="#000000" points="345.930085 185.472635 351.3435 185.472635 351.3435 168.736765 345.930085 168.736765"></polygon>
        <polygon id="Fill-22" fill="#000000" points="330.105792 216.264706 335.519208 216.264706 335.519208 199.528835 330.105792 199.528835"></polygon>
        <polygon id="Fill-23" fill="#000000" points="345.930085 216.264706 351.3435 216.264706 351.3435 199.528835 345.930085 199.528835"></polygon>
        <polygon id="Fill-24" fill="#000000" points="330.105792 246.579988 335.519208 246.579988 335.519208 229.844118 330.105792 229.844118"></polygon>
        <polygon id="Fill-25" fill="#000000" points="345.930085 246.579988 351.3435 246.579988 351.3435 229.844118 345.930085 229.844118"></polygon>
        <polygon id="Fill-26" fill="#000000" points="330.105792 276.895271 335.519208 276.895271 335.519208 260.1594 330.105792 260.1594"></polygon>
        <polygon id="Fill-27" fill="#000000" points="345.930085 276.895271 351.3435 276.895271 351.3435 260.1594 345.930085 260.1594"></polygon>
        <polygon id="Fill-28" fill="#000000" points="330.105792 307.687341 335.519208 307.687341 335.519208 290.951471 330.105792 290.951471"></polygon>
        <polygon id="Fill-29" fill="#000000" points="345.930085 307.687341 351.3435 307.687341 351.3435 290.951471 345.930085 290.951471"></polygon>
        <polygon id="Fill-30" fill="#000000" points="182.243604 280.975129 187.657019 280.975129 187.657019 264.239259 182.243604 264.239259"></polygon>
        <polygon id="Fill-31" fill="#000000" points="198.067896 280.975129 203.481311 280.975129 203.481311 264.239259 198.067896 264.239259"></polygon>
        <polygon id="Fill-32" fill="#000000" points="101.783858 246.133376 107.197274 246.133376 107.197274 229.397506 101.783858 229.397506"></polygon>
        <polygon id="Fill-33" fill="#000000" points="101.783858 274.632035 107.197274 274.632035 107.197274 257.896165 101.783858 257.896165"></polygon>
        <polygon id="Fill-34" fill="#000000" points="144.289415 287.318224 149.70283 287.318224 149.70283 266.502494 144.289415 266.502494"></polygon>
        <path d="M146.996123,71.4176471 C152.879745,71.4176471 157.853094,66.4445647 157.853094,60.5480824 C157.853094,54.6576353 152.879745,49.6785176 146.996123,49.6785176 C141.106472,49.6785176 136.139151,54.6576353 136.139151,60.5480824 C136.139151,66.4204235 141.106472,71.4176471 146.996123,71.4176471 L146.996123,71.4176471 Z M146.996123,55.575 C149.70283,55.575 152.409538,57.8382353 152.409538,60.9946941 C152.409538,63.7105765 150.148925,66.4204235 146.996123,66.4204235 C144.289415,66.4204235 141.576679,64.1571882 141.576679,60.9946941 C142.028802,57.8382353 144.289415,55.575 146.996123,55.575 L146.996123,55.575 Z" id="Fill-35" fill="#000000"></path>
        <path d="M139.768189,255.186318 L154.224057,255.186318 L154.224057,197.2656 L139.768189,197.2656 L139.768189,255.186318 Z M145.181604,202.685294 L148.810642,202.685294 L148.810642,249.766624 L145.181604,249.766624 L145.181604,202.685294 Z" id="Fill-36" fill="#000000"></path>
        <path d="M139.768189,180.052941 L154.224057,180.052941 L154.224057,121.655435 L139.768189,121.655435 L139.768189,180.052941 Z M145.181604,127.105306 L148.810642,127.105306 L148.810642,174.1806 L145.181604,174.1806 L145.181604,127.105306 Z" id="Fill-37" fill="#000000"></path>
        <polygon id="Fill-38" fill="#000000" points="135.246962 106.2594 140.660377 106.2594 140.660377 94.9432235 135.246962 94.9432235"></polygon>
        <polygon id="Fill-39" fill="#000000" points="144.289415 106.2594 149.70283 106.2594 149.70283 94.9432235 144.289415 94.9432235"></polygon>
        <polygon id="Fill-40" fill="#000000" points="153.777962 106.2594 159.191377 106.2594 159.191377 94.9432235 153.777962 94.9432235"></polygon>
        <path d="M48.8674245,333.059718 L37.5643585,291.422224 L26.2612925,333.059718 L34.8576509,333.059718 L34.8576509,336.216176 L21.740066,336.216176 L21.740066,341.635871 L44.7983208,341.635871 L44.7983208,336.216176 L39.8249717,336.216176 L39.8249717,333.059718 L48.8674245,333.059718 Z M33.5193679,327.609847 L37.5884717,312.666459 L41.6636038,327.609847 L33.5193679,327.609847 Z" id="Fill-41" fill="#000000"></path>
        <path d="M298.903302,167.843541 L304.316717,158.337953 L298.903302,148.814259 L288.04633,148.814259 L282.632915,158.313812 L288.04633,167.8194 L298.903302,167.8194 L298.903302,167.843541 Z M291.229274,154.264129 L295.7505,154.264129 L298.011113,157.891341 L295.7505,161.947059 L291.229274,161.947059 L288.96866,158.313812 L291.229274,154.264129 Z" id="Fill-42" fill="#000000"></path>
        <polygon id="Fill-43" fill="#000000" points="284.893528 285.054988 290.306943 285.054988 290.306943 189.552494 284.893528 189.552494"></polygon>
        <polygon id="Fill-44" fill="#000000" points="296.196594 285.085165 301.610009 285.085165 301.610009 202.238682 296.196594 202.238682"></polygon>
        <polygon id="Fill-45" fill="#000000" points="296.196594 197.682035 301.610009 197.682035 301.610009 183.2094 296.196594 183.2094"></polygon>
        <polygon id="Fill-46" fill="#000000" points="361.308283 320.373529 366.721698 320.373529 366.721698 311.7672 361.308283 311.7672"></polygon>
        <polygon id="Fill-47" fill="#000000" points="0.502358491 198.158824 45.7146226 198.158824 45.7146226 193.632353 0.502358491 193.632353"></polygon>
        <path d="M10.437,187.735871 L40.7231887,187.735871 L40.7231887,182.316176 L10.437,182.316176 C9.54481132,182.316176 8.62850943,181.422953 8.62850943,180.499553 C8.62850943,179.606329 9.52069811,178.682929 10.437,178.682929 L10.437,173.263235 C6.36789623,173.263235 3.20906604,176.419694 3.20906604,180.499553 C3.20906604,184.579412 6.39200943,187.735871 10.437,187.735871 L10.437,187.735871 Z" id="Fill-48" fill="#000000"></path>
        <path d="M27.629717,214.448082 C25.8151981,214.448082 24.0006792,212.631459 24.0006792,210.820871 C24.0006792,209.028388 25.3691038,207.211765 27.629717,207.211765 L45.2685283,207.211765 L45.2685283,201.792071 L27.629717,201.792071 C22.6623962,201.792071 18.5872642,205.865894 18.5872642,210.845012 C18.5872642,215.818094 22.6623962,219.897953 27.629717,219.897953 L27.629717,214.448082 Z" id="Fill-49" fill="#000000"></path>
        <path d="M52.9425566,112.602494 L80.5160094,112.602494 L80.5160094,107.1828 L52.9425566,107.1828 C50.6819434,107.1828 48.4213302,105.366176 48.4213302,102.656329 C48.4213302,100.393094 50.2358491,98.5764706 52.4964623,98.1298588 L55.2031698,97.6832471 L55.2031698,94.9673647 C55.2031698,90.4408941 58.8322075,86.8136824 63.7995283,86.8136824 C68.3207547,86.8136824 71.9497925,90.8935412 71.9497925,95.8666235 L71.9497925,98.5764706 L74.6565,98.5764706 C76.9171132,98.5764706 78.7316321,100.393094 78.7316321,102.656329 L84.1450472,102.656329 C84.1450472,98.1298588 80.9922453,94.4966118 76.9171132,93.1567765 C76.0188962,86.3670706 70.1352736,80.9413412 63.353434,80.9413412 C56.1255,80.9413412 50.6819434,86.3670706 49.7897547,93.1567765 C46.160717,94.5207529 43.4540094,98.1298588 43.4540094,102.656329 C43.0079151,108.076024 47.5291415,112.602494 52.9425566,112.602494 L52.9425566,112.602494 Z" id="Fill-50" fill="#000000"></path>
        <polygon id="Fill-51" fill="#000000" points="84.1450472 112.602494 96.3403019 112.602494 96.3403019 107.1828 84.1450472 107.1828"></polygon>
        <path d="M368.090123,108.999424 L395.663575,108.999424 L395.663575,103.573694 L368.090123,103.573694 C365.829509,103.573694 363.568896,101.757071 363.568896,99.0472235 C363.568896,96.7839882 365.377387,94.9673647 367.638,94.5207529 L370.350736,94.0741412 L370.350736,91.3642941 C370.350736,86.8378235 373.973745,83.2045765 378.494972,83.2045765 C383.016198,83.2045765 386.645236,87.2844353 386.645236,92.2575176 L386.645236,94.9673647 L389.351943,94.9673647 C391.612557,94.9673647 393.427075,96.7839882 393.427075,99.0472235 L398.840491,99.0472235 C398.840491,94.5207529 395.687689,90.8935412 391.612557,89.5476706 C390.71434,82.7579647 384.830717,77.3322353 378.048877,77.3322353 C371.267038,77.3322353 365.377387,82.7579647 364.485198,89.1010588 C360.85616,90.4650353 358.149453,94.0741412 358.149453,98.6006118 C358.12534,104.472953 362.646566,108.999424 368.090123,108.999424 L368.090123,108.999424 Z" id="Fill-52" fill="#000000"></path>
        <polygon id="Fill-53" fill="#000000" points="398.816377 108.969247 411.011632 108.969247 411.011632 103.549553 398.816377 103.549553"></polygon>
        <path d="M216.629038,61.4714824 L251.900632,61.4714824 L251.900632,56.0457529 L216.629038,56.0457529 C213,56.0457529 210.293292,53.3359059 210.293292,49.7026588 C210.293292,46.5462 212.553906,43.8122118 216.176915,43.3656 L218.889651,42.9129529 L218.889651,40.2031059 C218.889651,33.8600118 223.856972,28.8869294 230.192717,28.8869294 C236.07634,28.8869294 241.495783,34.7834118 241.495783,41.1023647 L241.495783,43.8122118 L244.202491,43.8122118 C247.355292,43.8122118 250.086113,46.5220588 250.086113,50.1553059 L255.505557,50.1553059 C255.505557,44.7295765 251.430425,40.2031059 246.463104,38.8391294 C245.094679,30.2328 237.866745,23.4430941 229.740594,23.4430941 C221.150264,23.4430941 213.916302,30.2328 213.024113,38.8391294 C208.056792,40.6497176 204.873849,45.1761882 204.873849,50.1553059 C204.403642,56.0216118 209.847198,61.4714824 216.629038,61.4714824 L216.629038,61.4714824 Z" id="Fill-54" fill="#000000"></path>
        <polygon id="Fill-55" fill="#000000" points="256.397745 61.4413059 272.222038 61.4413059 272.222038 56.0216118 256.397745 56.0216118"></polygon>
        <path d="M275.404981,8.94028235 C266.808623,8.94028235 259.580689,16.1826353 259.580689,24.7829294 C259.580689,33.3892588 266.808623,40.6255765 275.404981,40.6255765 C283.995311,40.6255765 291.229274,33.3892588 291.229274,24.7829294 C291.229274,16.1826353 283.971198,8.94028235 275.404981,8.94028235 L275.404981,8.94028235 Z M275.404981,34.7592706 C269.985538,34.7592706 264.994104,30.2328 264.994104,24.3363176 C264.994104,18.4458706 269.51533,13.9194 275.404981,13.9194 C281.288604,13.9194 285.80983,18.4458706 285.80983,24.3363176 C285.80983,30.2086588 281.264491,34.7592706 275.404981,34.7592706 L275.404981,34.7592706 Z" id="Fill-56" fill="#000000"></path>
        <polygon id="Fill-57" fill="#000000" points="272.668132 6.23043529 278.081547 6.23043529 278.081547 0.810741176 272.668132 0.810741176"></polygon>
        <polygon id="Fill-58" fill="#000000" points="266.030972 2.62736471 268.737679 7.34092941 264.029575 10.0507765 261.322868 5.33721176"></polygon>
        <polygon id="Fill-59" fill="#000000" points="256.349519 10.2861529 261.063651 12.996 258.350915 17.7156 253.642811 14.9997176"></polygon>
        <polygon id="Fill-60" fill="#000000" points="251.876519 27.0461647 257.289934 27.0461647 257.289934 21.6264706 251.876519 21.6264706"></polygon>
        <polygon id="Fill-61" fill="#000000" points="253.642811 34.1436706 258.350915 31.4338235 261.063651 36.1473882 256.349519 38.8572353"></polygon>
        <polygon id="Fill-62" fill="#000000" points="261.346981 43.8122118 264.053689 39.0986471 268.761792 41.8084941 266.055085 46.5220588"></polygon>
        <polygon id="Fill-63" fill="#000000" points="272.668132 48.3085059 278.081547 48.3085059 278.081547 42.8888118 272.668132 42.8888118"></polygon>
        <polygon id="Fill-64" fill="#000000" points="289.764396 43.6251176 285.056292 46.3349647 282.349585 41.6153647 287.057689 38.9055176"></polygon>
        <polygon id="Fill-65" fill="#000000" points="292.453019 31.3855412 297.161123 34.0953882 294.454415 38.8149882 289.740283 36.0991059"></polygon>
        <polygon id="Fill-66" fill="#000000" points="293.935981 27.0461647 299.349396 27.0461647 299.349396 21.6264706 293.935981 21.6264706"></polygon>
        <polygon id="Fill-67" fill="#000000" points="294.641292 10.1232 297.348 14.8367647 292.639896 17.5466118 289.933189 12.8330471"></polygon>
        <polygon id="Fill-68" fill="#000000" points="284.845302 2.45837647 289.553406 5.16822353 286.846698 9.88782353 282.138594 7.17194118"></polygon>
        <path d="M269.51533,18.9166235 C266.362528,22.0730824 266.362528,27.5229529 269.51533,30.6794118 L273.590462,26.5995529 C272.692245,25.7063294 272.692245,23.8897059 273.590462,22.9723412 C274.036557,22.5196941 274.952858,22.0730824 275.404981,22.0730824 C275.851075,22.0730824 276.767377,22.5196941 277.213472,22.9723412 L281.288604,18.8924824 C279.926208,17.5224706 277.665594,16.6292471 275.404981,16.6292471 C273.144368,16.6292471 271.329849,17.1 269.51533,18.9166235 L269.51533,18.9166235 Z" id="Fill-69" fill="#000000"></path>
    </g>
</svg>
