<svg width="360px" height="416px" viewBox="939 561 360 416" version="1.1" xmlns="http://www.w3.org/2000/svg" xmlns:xlink="http://www.w3.org/1999/xlink">
	<!-- Generator: Sketch 40.3 (33839) - http://www.bohemiancoding.com/sketch -->
	<desc>Created with Sketch.</desc>
	<defs>
		<rect id="path-1" x="3.69482223e-13" y="0" width="359.344828" height="415" rx="8"></rect>
		<polygon id="path-3" points="0 415.595403 415.484087 415.595403 415.484087 0.111316087 0 0.111316087"></polygon>
	</defs>
	<g id="Raise-Capital-Graphic" stroke="none" stroke-width="1" fill="none" fill-rule="evenodd" transform="translate(939.000000, 561.000000)">
		<mask id="mask-2" fill="white">
			<use xlink:href="#path-1"></use>
		</mask>
		<g id="Mask"></g>
		<g id="Page-1" opacity="0.05" mask="url(#mask-2)">
			<g transform="translate(-36.004310, -2.219518)">
				<path d="M251.477641,252.145351 C226.245503,277.377489 185.875062,277.377489 160.642924,252.145351 C135.410786,226.913213 135.410786,186.542772 160.642924,161.310634 C185.875062,136.078496 226.245503,136.078496 251.477641,161.310634 C276.709779,186.542772 276.709779,226.913213 251.477641,252.145351 L251.477641,252.145351 Z M63.5009895,238.268165 C72.7519022,252.145351 72.7519022,282.843418 63.5009895,296.722237 L116.487499,349.708747 C130.364685,340.036373 161.062752,340.036373 174.941571,349.708747 L349.041036,175.609281 C339.78849,161.730462 339.368662,131.032395 349.041036,117.15521 L296.054527,64.1686999 C282.175707,73.4196126 251.477641,73.4196126 237.600455,64.1686999 L63.5009895,238.268165 Z" id="Fill-1" fill="#030404"></path>
				<g id="Group-5" stroke-width="1" fill="none" transform="translate(-0.000000, 0.557048)">
					<mask id="mask-4" fill="white">
						<use xlink:href="#path-3"></use>
					</mask>
					<g id="Clip-4"></g>
					<path d="M394.458231,146.455593 L186.295543,354.618281 L180.827981,360.085843 L148.027508,392.886316 L19.3445847,264.624853 L265.775308,18.1941305 L394.458231,146.455593 Z M136.252728,131.737118 L-0.000163357101,267.568548 L148.027508,415.59622 L415.485557,148.138171 L267.457886,0.110499301 L136.252728,131.737118 Z" id="Fill-3" fill="#030404" mask="url(#mask-4)"></path>
				</g>
				<path d="M230.450968,213.456508 C230.870796,214.717625 230.870796,215.980376 230.870796,217.241492 C230.870796,218.502609 230.450968,219.763726 229.609679,221.026476 C229.189851,222.287593 228.348562,223.128882 227.507273,224.389999 L214.049915,210.932641 C217.415071,208.830235 220.358766,207.988946 222.461172,207.569118 C224.563578,207.149291 226.246156,207.988946 228.348562,210.092986 C229.189851,210.932641 230.03114,212.195391 230.450968,213.456508 L230.450968,213.456508 Z M198.911612,203.784134 C195.967917,205.466712 193.865511,206.308002 192.182933,206.727829 C190.500355,207.149291 188.817777,206.308002 187.136832,204.625423 C186.295543,203.784134 185.454254,202.523017 185.034426,201.681728 C184.612965,200.420612 184.612965,199.579322 184.612965,198.318206 C184.612965,197.055455 185.034426,196.214166 185.454254,195.372877 C185.874082,194.533222 186.715371,193.691933 187.55666,192.850643 L198.911612,203.784134 Z M234.235952,196.635627 C232.553374,195.372877 230.450968,194.533222 228.348562,193.691933 C225.824695,193.270471 223.302461,192.850643 219.937305,193.691933 C216.573782,194.11176 212.788798,195.794338 208.583986,198.316572 C207.742697,198.738033 206.901408,199.157861 206.060119,199.579322 C205.21883,199.99915 204.799002,200.420612 203.957713,200.840439 L191.761472,188.645832 C193.44405,186.963253 195.546456,186.541792 197.648862,186.541792 C200.172729,186.541792 202.275135,187.804543 203.957713,189.485487 L214.049915,179.393285 C211.527681,177.290879 209.003814,175.608301 206.060119,174.767012 C203.536252,173.927357 200.592557,173.505895 198.070323,173.927357 C195.546456,173.927357 193.024222,174.767012 190.500355,176.029763 C187.978121,177.290879 185.454254,178.551996 183.351848,180.654402 L177.884286,174.767012 L173.679474,178.973458 L179.145403,184.439386 C177.042997,186.541792 175.78188,189.065659 174.099302,191.589527 C172.838185,194.11176 171.996896,197.055455 171.996896,199.579322 C171.577068,202.101556 171.996896,205.045251 172.838185,207.569118 C173.679474,210.092986 175.362052,213.036681 177.884286,215.139086 C180.408153,217.66132 182.510559,218.924071 185.034426,219.763726 C187.55666,220.605015 189.659066,220.605015 192.182933,220.605015 C194.705167,220.185187 196.809206,219.763726 199.33144,218.502609 C201.433846,217.66132 203.957713,216.400203 206.060119,215.139086 C206.479947,214.717625 207.321236,214.297797 207.742697,214.297797 C208.162525,213.876336 208.583986,213.876336 209.003814,213.876336 L223.722289,228.596445 C221.200055,230.277389 218.25636,231.118678 215.312665,231.118678 C212.367337,231.118678 209.423642,229.4361 206.901408,226.913866 L197.229034,236.58624 C203.116424,241.632341 209.003814,244.154575 214.891204,244.154575 C220.778594,244.154575 226.246156,241.632341 232.133546,236.58624 L238.020936,242.47363 L242.225748,238.267185 L236.338358,232.379795 C239.701881,228.596445 241.80592,225.231288 242.645575,221.867765 C243.908326,218.502609 244.328154,215.558914 243.908326,212.615219 C243.486865,209.671524 243.067037,207.149291 242.225748,205.466712 C241.384459,203.364307 240.123342,201.681728 239.282053,200.840439 C237.179647,199.157861 235.91853,197.896744 234.235952,196.635627 L234.235952,196.635627 Z" id="Fill-6" fill="#030404"></path>
			</g>
		</g>
	</g>
</svg>